# xmcd
#
# Track frame offsets: 
#        150
#        19125
#        40915
#        57812
#        70895
#        81570
#        99172
#        115085
#        131932
#        158597
#        176117
#        189867
#        201405
#        213152
#
# Disc length: 3184 seconds
#
# Revision: 4
# Processed by: cddbd v1.5PL3 Copyright (c) Steve Scherf et al.
# Submitted via: ExactAudioCopy v0.90b4
#
DISCID=c00c6e0e
DTITLE=Bukka White - Mississippi Blues (Takoma)
DYEAR=1998
DGENRE=Blues
TTITLE0=Aberdeen Mississippi Blues
TTITLE1=Baby Please Don't Go
TTITLE2=New Orleans Streamline
TTITLE3=Parchman Fram Blues
TTITLE4=Poor Boy Long Way From Home
TTITLE5=Rememberance Of Charlie Patton
TTITLE6=Shake 'em On Down
TTITLE7=I am In The Heavenly Way
TTITLE8=The Atlanta Special
TTITLE9=Drunk Man Blues (Piano)
TTITLE10=Army Blues
TTITLE11=World Boogie
TTITLE12=Midnight Blue
TTITLE13=Old Man Walking Blues
EXTD=
EXTT0=
EXTT1=
EXTT2=
EXTT3=
EXTT4=
EXTT5=
EXTT6=
EXTT7=
EXTT8=
EXTT9=
EXTT10=
EXTT11=
EXTT12=
EXTT13=
PLAYORDER=
